<svg width="340" height="68" viewBox="0 0 340 68" fill="none" xmlns="http://www.w3.org/2000/svg">
<rect width="339.52" height="67.7687" rx="8" fill="#0D0D0D"/>
<path d="M39.9248 37.0264H37.1416V44.5557H32V23.2275H40.3936C42.9229 23.2275 44.9004 23.7891 46.3262 24.9121C47.752 26.0352 48.4648 27.6221 48.4648 29.6729C48.4648 31.1572 48.1646 32.3877 47.564 33.3643C46.9634 34.3408 46.0234 35.1318 44.7441 35.7373L49.1973 44.3359V44.5557H43.6895L39.9248 37.0264ZM37.1416 33.0566H40.3936C41.3701 33.0566 42.105 32.8003 42.5981 32.2876C43.0913 31.7749 43.3379 31.0596 43.3379 30.1416C43.3379 29.2236 43.0889 28.5034 42.5908 27.981C42.0928 27.4585 41.3604 27.1973 40.3936 27.1973H37.1416V33.0566ZM69.6318 34.3311C69.6318 36.4111 69.2461 38.2519 68.4746 39.8535C67.7031 41.4551 66.6069 42.688 65.186 43.5522C63.7651 44.4165 62.1465 44.8486 60.3301 44.8486C58.5137 44.8486 56.9024 44.4312 55.4961 43.5962C54.0898 42.7612 52.9937 41.5674 52.2075 40.0146C51.4214 38.4619 51.0088 36.6797 50.9697 34.668V33.4668C50.9697 31.3769 51.353 29.5337 52.1196 27.937C52.8862 26.3403 53.9849 25.1074 55.4155 24.2383C56.8462 23.3691 58.4746 22.9346 60.3008 22.9346C62.1074 22.9346 63.7187 23.3643 65.1348 24.2236C66.5508 25.083 67.6519 26.3061 68.438 27.8931C69.2241 29.48 69.6221 31.2988 69.6318 33.3496V34.3311ZM64.4023 33.4375C64.4023 31.3183 64.0483 29.7095 63.3403 28.6108C62.6323 27.5122 61.6191 26.9629 60.3008 26.9629C57.7226 26.9629 56.3604 28.8965 56.2139 32.7637L56.1992 34.3311C56.1992 36.4209 56.5459 38.0273 57.2393 39.1504C57.9326 40.2734 58.9629 40.835 60.3301 40.835C61.6289 40.835 62.6299 40.2832 63.333 39.1797C64.0361 38.0762 64.3926 36.4893 64.4023 34.4189V33.4375ZM89.5391 37.334C89.4707 38.8184 89.0703 40.1294 88.3379 41.2671C87.6055 42.4048 86.5776 43.2861 85.2544 43.9111C83.9311 44.5361 82.4199 44.8486 80.7207 44.8486C77.918 44.8486 75.7109 43.9356 74.0996 42.1094C72.4883 40.2832 71.6826 37.7051 71.6826 34.375V33.3203C71.6826 31.2305 72.0464 29.4019 72.7739 27.8345C73.5015 26.2671 74.5488 25.0562 75.916 24.2017C77.2832 23.3472 78.8652 22.9199 80.6621 22.9199C83.25 22.9199 85.3301 23.6011 86.9023 24.9634C88.4746 26.3257 89.3682 28.2031 89.583 30.5957H84.4561C84.417 29.2969 84.0898 28.3643 83.4746 27.7979C82.8594 27.2314 81.9219 26.9482 80.6621 26.9482C79.3828 26.9482 78.4453 27.4268 77.8496 28.3838C77.2539 29.3408 76.9414 30.8691 76.9121 32.9688V34.4775C76.9121 36.7529 77.1978 38.3789 77.769 39.3555C78.3403 40.332 79.3242 40.8203 80.7207 40.8203C81.9023 40.8203 82.8057 40.542 83.4307 39.9854C84.0557 39.4287 84.3877 38.5449 84.4268 37.334H89.5391ZM99.2217 36.6162L97.1123 38.9307V44.5557H91.9707V23.2275H97.1123V32.6318L98.8994 29.9219L103.499 23.2275H109.856L102.649 32.6611L109.856 44.5557H103.763L99.2217 36.6162ZM124.388 35.5176H116.302V40.6006H125.853V44.5557H111.16V23.2275H125.882V27.1973H116.302V31.6943H124.388V35.5176ZM144.983 27.1973H138.582V44.5557H133.44V27.1973H127.156V23.2275H144.983V27.1973ZM157.918 38.8867C157.918 38.1348 157.652 37.5488 157.12 37.1289C156.587 36.709 155.652 36.2744 154.314 35.8252C152.977 35.376 151.883 34.9414 151.033 34.5215C148.27 33.1641 146.888 31.2988 146.888 28.9258C146.888 27.7441 147.232 26.7017 147.92 25.7983C148.609 24.895 149.583 24.1919 150.843 23.689C152.103 23.186 153.519 22.9346 155.091 22.9346C156.624 22.9346 157.999 23.208 159.214 23.7549C160.43 24.3018 161.375 25.0806 162.049 26.0913C162.723 27.1021 163.06 28.2568 163.06 29.5557H157.933C157.933 28.6865 157.667 28.0127 157.134 27.5342C156.602 27.0557 155.882 26.8164 154.974 26.8164C154.056 26.8164 153.331 27.019 152.798 27.4243C152.266 27.8296 152 28.3447 152 28.9697C152 29.5166 152.293 30.0122 152.879 30.4565C153.465 30.9009 154.495 31.3599 155.97 31.8335C157.444 32.3071 158.655 32.8174 159.603 33.3643C161.907 34.6924 163.06 36.5234 163.06 38.8574C163.06 40.7227 162.356 42.1875 160.95 43.252C159.544 44.3164 157.615 44.8486 155.164 44.8486C153.436 44.8486 151.871 44.5386 150.469 43.9185C149.068 43.2983 148.013 42.4487 147.305 41.3696C146.597 40.2905 146.243 39.0479 146.243 37.6416H151.399C151.399 38.7842 151.695 39.6265 152.286 40.1685C152.876 40.7105 153.836 40.9814 155.164 40.9814C156.014 40.9814 156.685 40.7983 157.178 40.4321C157.671 40.0659 157.918 39.5508 157.918 38.8867ZM183.523 44.5557H178.411V35.6494H170.838V44.5557H165.696V23.2275H170.838V31.6943H178.411V23.2275H183.523V44.5557ZM204.837 34.3311C204.837 36.4111 204.451 38.2519 203.68 39.8535C202.908 41.4551 201.812 42.688 200.391 43.5522C198.97 44.4165 197.352 44.8486 195.535 44.8486C193.719 44.8486 192.107 44.4312 190.701 43.5962C189.295 42.7612 188.199 41.5674 187.413 40.0146C186.626 38.4619 186.214 36.6797 186.175 34.668V33.4668C186.175 31.3769 186.558 29.5337 187.325 27.937C188.091 26.3403 189.19 25.1074 190.621 24.2383C192.051 23.3691 193.68 22.9346 195.506 22.9346C197.313 22.9346 198.924 23.3643 200.34 24.2236C201.756 25.083 202.857 26.3061 203.643 27.8931C204.429 29.48 204.827 31.2988 204.837 33.3496V34.3311ZM199.607 33.4375C199.607 31.3183 199.253 29.7095 198.545 28.6108C197.837 27.5122 196.824 26.9629 195.506 26.9629C192.928 26.9629 191.565 28.8965 191.419 32.7637L191.404 34.3311C191.404 36.4209 191.751 38.0273 192.444 39.1504C193.138 40.2734 194.168 40.835 195.535 40.835C196.834 40.835 197.835 40.2832 198.538 39.1797C199.241 38.0762 199.598 36.4893 199.607 34.4189V33.4375ZM220.716 35.5176H212.63V40.6006H222.181V44.5557H207.488V23.2275H222.21V27.1973H212.63V31.6943H220.716V35.5176ZM235.276 38.8867C235.276 38.1348 235.01 37.5488 234.478 37.1289C233.946 36.709 233.011 36.2744 231.673 35.8252C230.335 35.376 229.241 34.9414 228.392 34.5215C225.628 33.1641 224.246 31.2988 224.246 28.9258C224.246 27.7441 224.59 26.7017 225.279 25.7983C225.967 24.895 226.941 24.1919 228.201 23.689C229.461 23.186 230.877 22.9346 232.449 22.9346C233.982 22.9346 235.357 23.208 236.573 23.7549C237.789 24.3018 238.733 25.0806 239.407 26.0913C240.081 27.1021 240.418 28.2568 240.418 29.5557H235.291C235.291 28.6865 235.025 28.0127 234.493 27.5342C233.96 27.0557 233.24 26.8164 232.332 26.8164C231.414 26.8164 230.689 27.019 230.157 27.4243C229.625 27.8296 229.358 28.3447 229.358 28.9697C229.358 29.5166 229.651 30.0122 230.237 30.4565C230.823 30.9009 231.854 31.3599 233.328 31.8335C234.803 32.3071 236.014 32.8174 236.961 33.3643C239.266 34.6924 240.418 36.5234 240.418 38.8574C240.418 40.7227 239.715 42.1875 238.309 43.252C236.902 44.3164 234.974 44.8486 232.522 44.8486C230.794 44.8486 229.229 44.5386 227.828 43.9185C226.426 43.2983 225.372 42.4487 224.664 41.3696C223.956 40.2905 223.602 39.0479 223.602 37.6416H228.758C228.758 38.7842 229.053 39.6265 229.644 40.1685C230.235 40.7105 231.194 40.9814 232.522 40.9814C233.372 40.9814 234.043 40.7983 234.537 40.4321C235.03 40.0659 235.276 39.5508 235.276 38.8867Z" fill="white"/>
<path d="M274.059 46.7779C274.059 46.287 273.729 45.9597 273.234 45.9597H258.891C258.396 45.9597 258.066 46.287 258.066 46.7779C258.066 47.2688 258.396 47.5961 258.891 47.5961H273.234C273.729 47.5961 274.059 47.187 274.059 46.7779Z" fill="white"/>
<path d="M262.189 50.0505H260.54C260.046 50.0505 259.716 50.3778 259.716 50.8687C259.716 51.3596 260.046 51.6869 260.54 51.6869H262.189C262.683 51.6869 263.013 51.3596 263.013 50.8687C263.013 50.3778 262.683 50.0505 262.189 50.0505Z" fill="white"/>
<path d="M266.063 42.6868C266.063 42.1959 265.733 41.8687 265.239 41.8687H257.242C256.748 41.8687 256.418 42.1959 256.418 42.6868C256.418 43.1777 256.748 43.505 257.242 43.505H265.239C265.733 43.505 266.063 43.0959 266.063 42.6868Z" fill="white"/>
<path d="M307.033 44.0778C306.786 43.5869 306.291 43.1778 305.797 42.9324L299.532 40.5596L296.976 39.6596C296.234 39.3324 295.575 38.8414 295.162 38.1869L293.019 34.6687C293.431 34.5869 293.679 34.2596 293.679 33.8505C293.679 33.3596 293.349 33.0324 292.854 33.0324H292.03L291.041 31.396C291.453 31.3142 291.7 30.9869 291.7 30.5778C291.7 30.0869 291.37 29.7596 290.876 29.7596H290.052L289.227 28.4505C289.557 28.3687 289.804 28.0414 289.804 27.7142C289.804 27.2233 289.474 26.896 288.98 26.896H288.238L287.166 25.1778C287.166 25.1778 287.166 25.096 287.084 25.096C286.095 23.9505 284.776 23.3778 283.374 23.5414C282.138 23.7051 281.149 24.4414 280.736 25.3414C280.654 25.5869 280.654 25.8324 280.819 26.0778L287.661 37.696C287.743 37.8596 287.908 38.0233 288.073 38.0233L296.481 41.2142H296.564L299.037 42.1142L305.22 44.4869C305.384 44.5687 305.549 44.6505 305.632 44.896C305.961 45.5505 305.961 46.2051 305.549 46.8596H292.112C291.288 46.8596 290.464 46.6142 289.804 46.1233L266.805 29.1869C266.805 29.1869 267.135 29.0233 267.547 28.4505C267.959 27.8778 268.124 27.1414 268.124 26.4051L267.382 19.5324L268.371 17.9778C268.618 17.6505 269.113 17.5687 269.443 17.8142C269.69 18.0596 270.679 18.8778 273.07 22.7233C274.306 24.5233 276.285 25.8324 278.511 26.1596C278.923 26.2414 279.417 25.9142 279.5 25.5051C279.582 25.096 279.253 24.6051 278.84 24.5233C277.109 24.196 275.461 23.2142 274.471 21.7414C271.586 17.3233 270.762 16.6687 270.432 16.4233C269.36 15.6869 267.877 15.9324 267.052 16.996L262.024 24.9324C261.694 25.4233 261.611 25.996 261.694 26.5687C261.199 26.7324 260.705 26.9778 260.457 27.4687L259.138 29.5142C258.396 30.5778 258.726 32.0505 259.798 32.7869C260.54 33.3596 262.106 34.3414 264.414 35.8142C264.579 35.896 264.744 35.9778 264.826 35.9778C265.074 35.9778 265.321 35.8142 265.486 35.5687C265.733 35.1596 265.651 34.6687 265.239 34.4233C263.013 32.9505 261.447 31.9687 260.705 31.396C260.375 31.1505 260.292 30.7414 260.54 30.3324L261.776 28.4505C262.024 28.1233 262.518 28.0414 262.848 28.2869L288.733 47.4324C289.722 48.1687 290.876 48.496 292.03 48.496H303.406C301.675 49.3142 299.284 50.0505 297.223 50.0505H294.338H291.948C290.546 50.0505 289.145 49.6415 287.991 48.9051C283.209 45.8778 274.306 40.2324 267.794 36.0596C267.382 35.8142 266.887 35.896 266.64 36.3051C266.393 36.7142 266.475 37.2051 266.887 37.4505C273.235 41.5414 281.89 47.0233 286.754 50.1324H265.486C264.991 50.1324 264.662 50.4596 264.662 50.9505C264.662 51.4414 264.991 51.7687 265.486 51.7687H291.948H294.338H297.141C300.521 51.7687 305.384 49.9687 306.621 48.2505C307.693 46.7778 307.775 45.3869 307.033 44.0778ZM288.815 36.7142L282.385 25.8324C282.632 25.5869 283.045 25.3414 283.539 25.2596C284.034 25.1778 284.941 25.2596 285.765 26.1596L286.26 26.9778H285.518C285.023 26.9778 284.693 27.3051 284.693 27.796C284.693 28.2869 285.023 28.6142 285.518 28.6142H287.249L288.073 29.9233H287.414C286.919 29.9233 286.589 30.2505 286.589 30.7414C286.589 31.2324 286.919 31.5596 287.414 31.5596H289.062L290.052 33.1142H289.392C288.897 33.1142 288.568 33.4414 288.568 33.9324C288.568 34.4233 288.897 34.7505 289.392 34.7505H291.041L293.349 38.3505L288.815 36.7142ZM263.425 25.8324L265.981 21.8233L266.475 26.5687C266.475 26.896 266.393 27.2233 266.228 27.4687C266.063 27.7142 265.733 28.3687 264.991 27.796C264.991 27.796 264.579 27.5505 263.837 26.9778C263.343 26.5687 263.26 26.1596 263.425 25.8324Z" fill="white"/>
</svg>
